<svg width="36" height="40" viewBox="0 0 36 40" fill="none" xmlns="http://www.w3.org/2000/svg">
<path d="M32 4H23.64C22.8 1.68 20.6 0 18 0C15.4 0 13.2 1.68 12.36 4H4C1.8 4 0 5.8 0 8V36C0 38.2 1.8 40 4 40H32C34.2 40 36 38.2 36 36V8C36 5.8 34.2 4 32 4ZM18 3.5C18.82 3.5 19.5 4.18 19.5 5C19.5 5.82 18.82 6.5 18 6.5C17.18 6.5 16.5 5.82 16.5 5C16.5 4.18 17.18 3.5 18 3.5ZM12.2 32H8V27.72L19.92 15.8L24.16 20.04L12.2 32ZM27.7 16.54L25.58 18.66L21.34 14.42L23.46 12.3C23.86 11.9 24.48 11.9 24.88 12.3L27.7 15.12C28.1 15.52 28.1 16.14 27.7 16.54Z" fill="white"/>
</svg>
