<svg width="20" height="13" viewBox="0 0 20 13" fill="none" xmlns="http://www.w3.org/2000/svg">
<path d="M12.2169 0.500001C11.5241 0.171139 10.7668 0.000526428 9.99993 0.000526428C9.23303 0.000526428 8.47574 0.171139 7.78293 0.500001L1.09193 3.637C0.0159318 4.141 -0.265068 5.564 0.249932 6.547V11.5C0.249932 11.6989 0.328949 11.8897 0.469602 12.0303C0.610254 12.171 0.801019 12.25 0.999932 12.25C1.19884 12.25 1.38961 12.171 1.53026 12.0303C1.67091 11.8897 1.74993 11.6989 1.74993 11.5V7.672L7.78293 10.5C8.47574 10.8289 9.23303 10.9995 9.99993 10.9995C10.7668 10.9995 11.5241 10.8289 12.2169 10.5L18.9079 7.363C20.3639 6.681 20.3639 4.319 18.9079 3.637L12.2179 0.500001H12.2169Z" fill="white"/>
</svg>
