 <svg width="25" height="24" viewBox="0 0 25 24" fill="none" xmlns="http://www.w3.org/2000/svg">
              <g clip-path="url(#clip0_278_913)">
                <path
                  d="M2.79167 3.33325C2.08442 3.33325 1.40615 3.6142 0.906049 4.1143C0.405952 4.6144 0.125 5.29267 0.125 5.99992L0.125 17.9999C0.125 18.7072 0.405952 19.3854 0.906049 19.8855C1.40615 20.3856 2.08442 20.6666 2.79167 20.6666H8.125V3.33325H2.79167Z"
                  fill="#009A49" />
                <path d="M8.125 3.33325H16.125V20.6666H8.125V3.33325Z" fill="#EEEEEE" />
                <path
                  d="M21.4583 3.33325H16.125V20.6666H21.4583C22.1656 20.6666 22.8439 20.3856 23.344 19.8855C23.844 19.3854 24.125 18.7072 24.125 17.9999V5.99992C24.125 5.29267 23.844 4.6144 23.344 4.1143C22.8439 3.6142 22.1656 3.33325 21.4583 3.33325Z"
                  fill="#009A49" />
              </g>
              <defs>
                <clipPath id="clip0_278_913">
                  <rect width="24" height="24" fill="white" transform="translate(0.125)" />
                </clipPath>
              </defs>
</svg>