<svg width="25" height="27" viewBox="0 0 25 27" fill="none" xmlns="http://www.w3.org/2000/svg">
<path d="M11.2261 9.69137C10.2164 10.4403 8.99348 10.8464 7.73635 10.8501C6.42797 10.8501 5.2276 10.4114 4.24547 9.69137C3.40172 10.3945 2.56022 11.4014 1.87172 12.6422C0.270849 15.5256 0.0942236 18.4832 1.47797 19.2505C2.09447 19.6015 2.74472 19.3382 3.41522 18.6925C3.2897 19.3882 3.22682 20.0938 3.22735 20.8007C3.22735 24.106 4.50985 26.7767 6.08822 26.7767C7.03997 26.7767 7.51135 25.8036 7.73747 24.3152C7.96247 25.7935 8.43497 26.7767 9.37997 26.7767C10.9516 26.7767 12.2442 24.1049 12.2442 20.8007C12.2442 20.0582 12.1745 19.3495 12.0552 18.6936C12.7302 19.3405 13.3782 19.6082 13.997 19.2527C15.3773 18.4855 15.1985 15.529 13.5987 12.6445C12.9125 11.4025 12.0687 10.3967 11.225 9.69362L11.2261 9.69137ZM7.73522 9.72512C8.36761 9.7249 8.99377 9.60012 9.57793 9.35791C10.1621 9.1157 10.6928 8.7608 11.1398 8.31348C11.5869 7.86616 11.9414 7.33517 12.1832 6.75083C12.425 6.1665 12.5493 5.54026 12.5491 4.90787C12.5489 4.27548 12.4241 3.64933 12.1819 3.06516C11.9397 2.481 11.5848 1.95026 11.1375 1.50325C10.6901 1.05624 10.1591 0.701711 9.57481 0.459912C8.99048 0.218112 8.36424 0.0937728 7.73185 0.0939944C6.45438 0.094442 5.22942 0.602342 4.32643 1.50596C3.42344 2.40958 2.9164 3.6349 2.91685 4.91237C2.9173 6.18983 3.4252 7.4148 4.32882 8.31779C5.23244 9.22077 6.45776 9.72782 7.73522 9.72737V9.72512ZM19.7356 15.8789C21.4321 15.8789 22.8091 14.5019 22.8091 12.8031C22.8091 11.1044 21.4298 9.72512 19.7345 9.72512C18.9182 9.72542 18.1355 10.0498 17.5583 10.627C16.9812 11.2041 16.6568 11.9869 16.6565 12.8031C16.6571 13.6194 16.9817 14.402 17.5591 14.9789C18.1365 15.5559 18.9194 15.8789 19.7356 15.8789ZM23.4818 17.743C23.0431 16.9499 22.5053 16.3064 21.9653 15.8564C21.3353 16.3176 20.5703 16.5989 19.7345 16.5989C18.8975 16.5989 18.1302 16.3176 17.5036 15.8564C16.9636 16.3064 16.4258 16.9499 15.9848 17.743C14.9611 19.5857 14.8486 21.4757 15.7329 21.9662C16.1266 22.1912 16.5428 22.0225 16.9703 21.6107C16.8921 22.0553 16.853 22.5059 16.8533 22.9574C16.8533 25.0724 17.6723 26.779 18.6815 26.779C19.289 26.779 19.5927 26.1569 19.7367 25.2062C19.8807 26.1512 20.1822 26.7779 20.7875 26.7779C21.7921 26.7779 22.6178 25.0701 22.6178 22.9574C22.6178 22.4849 22.5728 22.0304 22.4963 21.6119C22.9272 22.0247 23.3423 22.1969 23.7383 21.9685C24.6181 21.4802 24.5033 19.5891 23.4818 17.7464V17.743Z" fill="white"/>
</svg>
