<svg width="72" height="55" viewBox="0 0 72 55" fill="none" xmlns="http://www.w3.org/2000/svg">
<path d="M6.332 50.284C2.212 45.908 0 41 0 33.044C0 19.044 9.828 6.49599 24.12 0.291992L27.692 5.80399C14.352 13.02 11.744 22.384 10.704 28.288C12.852 27.176 15.664 26.788 18.42 27.044C25.636 27.712 31.324 33.636 31.324 41C31.324 44.713 29.849 48.274 27.2235 50.8995C24.598 53.525 21.037 55 17.324 55C13.032 55 8.928 53.04 6.332 50.284ZM46.332 50.284C42.212 45.908 40 41 40 33.044C40 19.044 49.828 6.49599 64.12 0.291992L67.692 5.80399C54.352 13.02 51.744 22.384 50.704 28.288C52.852 27.176 55.664 26.788 58.42 27.044C65.636 27.712 71.324 33.636 71.324 41C71.324 44.713 69.849 48.274 67.2235 50.8995C64.598 53.525 61.037 55 57.324 55C53.032 55 48.928 53.04 46.332 50.284Z" fill="white"/>
</svg>
